<svg id="Outline" xmlns="http://www.w3.org/2000/svg" width="40" height="40" viewBox="0 0 40 40">
  <defs>
    <style>
      .cls-1 {
        fill: none;
      }
    </style>
  </defs>
  <g>
    <rect class="cls-1" width="40" height="40"/>
    <g>
      <path d="M20,31C11.28418,31,4.45605,20.98438,4.16992,20.55762a.99992.99992,0,0,1,0-1.11524C4.45605,19.01562,11.28418,9,20,9S35.544,19.01562,35.83008,19.44238a.99992.99992,0,0,1,0,1.11524C35.544,20.98438,28.71582,31,20,31ZM6.23242,20C7.76074,22.04492,13.44434,29,20,29s12.23926-6.95508,13.76758-9C32.23926,17.95508,26.55566,11,20,11S7.76074,17.95508,6.23242,20Z"/>
      <path d="M20,26a6,6,0,1,1,6-6A6.00657,6.00657,0,0,1,20,26Zm0-10a4,4,0,1,0,4,4A4.004,4.004,0,0,0,20,16Z"/>
    </g>
  </g>
</svg>
